<svg id="Layer_1" data-name="Layer 1" xmlns="http://www.w3.org/2000/svg" xmlns:xlink="http://www.w3.org/1999/xlink" viewBox="0 0 36 36"><defs><style>.cls-1{fill:url(#linear-gradient);}.cls-2{fill:url(#linear-gradient-2);}.cls-3{fill:url(#linear-gradient-3);}</style><linearGradient id="linear-gradient" x1="5.22" y1="36" x2="5.22" y2="2" gradientUnits="userSpaceOnUse"><stop offset="0" stop-color="#cc7014"/><stop offset="1" stop-color="#e67f17"/></linearGradient><linearGradient id="linear-gradient-2" x1="29.07" x2="29.07" xlink:href="#linear-gradient"/><linearGradient id="linear-gradient-3" x1="18" y1="36" x2="18" gradientUnits="userSpaceOnUse"><stop offset="0" stop-color="#80460d"/><stop offset="1" stop-color="#4d2a08"/></linearGradient></defs><path class="cls-1" d="M5,33.67a11.16,11.16,0,0,0,5.4-9.36c0-3.74-.12-7.29-.34-10S9.74,7.85,9.74,4a6,6,0,0,1,.35-2H0V36H4.05A2.23,2.23,0,0,1,5,33.67Z"/><path class="cls-2" d="M31.15,2a1.69,1.69,0,0,1-.36.23A2,2,0,0,0,29.74,4c0,3.69.12,7.33.34,10,.23,2.81.36,6.47.36,10.32,0,4.57-3,8.76-8.3,11.69H36V2Z"/><path class="cls-3" d="M29.87.46A4,4,0,0,0,27.74,4c0,3.67.12,7.35.35,10.15s.35,6.48.35,10.16c0,4.48-3.69,9-11.08,11.67a.24.24,0,0,1-.28-.38,16.56,16.56,0,0,0,3.18-8.37A.25.25,0,0,0,20,27a.24.24,0,0,0-.23.15,11.17,11.17,0,0,1-3.34,3.93A30.15,30.15,0,0,1,6.32,35.8a.25.25,0,0,1-.2-.45,13.15,13.15,0,0,0,6.32-11c0-3.68-.12-7.35-.35-10.16S11.74,7.67,11.74,4a4,4,0,0,1,4-4h14A.24.24,0,0,1,29.87.46Z"/></svg>