<svg id="Layer_1" data-name="Layer 1" xmlns="http://www.w3.org/2000/svg" xmlns:xlink="http://www.w3.org/1999/xlink" viewBox="0 0 105 41"><defs><style>.cls-1{fill:none;}.cls-2{clip-path:url(#clip-path);}.cls-3{fill:url(#linear-gradient);}.cls-4{clip-path:url(#clip-path-2);}.cls-5{fill:url(#linear-gradient-2);}.cls-6{fill:url(#linear-gradient-3);}.cls-7{fill:#fff;}.cls-8{fill:#331c05;}.cls-9{fill:#99540f;}</style><clipPath id="clip-path" transform="translate(0 1)"><rect class="cls-1" width="105" height="40"/></clipPath><linearGradient id="linear-gradient" x1="20" y1="41" x2="20" y2="3" gradientUnits="userSpaceOnUse"><stop offset="0" stop-color="#cc7014"/><stop offset="1" stop-color="#e67f17"/></linearGradient><clipPath id="clip-path-2" transform="translate(0 1)"><path class="cls-1" d="M6.84,10.79A5,5,0,0,1,8.18,7.52a9.17,9.17,0,0,1,3.35-2.35,14.67,14.67,0,0,1,4.2-1.12,7,7,0,0,1,.83,0,11,11,0,0,1,2.64.34,6.21,6.21,0,0,1,2.95,1.4,2.08,2.08,0,0,1,.63,1.46,2.49,2.49,0,0,1-.23,1,6.34,6.34,0,0,1-1,1.35c-.52.63-.92.94-1.22.94-.07,0-.11,0-.14-.05a10.76,10.76,0,0,0-.78-1.3A13.35,13.35,0,0,0,17.9,7.25a4.22,4.22,0,0,0-2-1.24,5.75,5.75,0,0,0-1.2-.14,3.53,3.53,0,0,0-3,1.7A4.75,4.75,0,0,0,11,12.16a5,5,0,0,0,2.17,2.7,17.37,17.37,0,0,0,4.05,1.42,21.47,21.47,0,0,1,4.11,1.44,13.68,13.68,0,0,1,1.84,2.67,46.47,46.47,0,0,0,2.71,4.07c.65.89,1.14,1.33,1.49,1.33.08,0,.13,0,.16-.05a3.62,3.62,0,0,0,1.49-1.69q.63-1.26,2.57-5.62c.74-1.69,1.74-2.65,3-2.86a2.42,2.42,0,0,1,.47-.05,3.51,3.51,0,0,1,2.81,1.74.45.45,0,0,1,.09.32,6.54,6.54,0,0,1-.33,1.6c-.36,1.13-.72,1.71-1.06,1.74h-.12a2.16,2.16,0,0,1-1.11-.62,7.13,7.13,0,0,0-1.3-.84,1,1,0,0,0-.33-.05,1.76,1.76,0,0,0-.82.23q-.1,0-.54.75c-.32.57-.92,1.85-1.82,3.85q-.12.23-.54.93c-.29.51-.59,1-.92,1.65a5.09,5.09,0,0,0-.57,1.67,3.09,3.09,0,0,0-.07.66,3.73,3.73,0,0,0,.12.94,5.39,5.39,0,0,0,1.91,2.77,3.51,3.51,0,0,0,2.14.84,2.63,2.63,0,0,0,.67-.09A4,4,0,0,0,35,32.33a8.79,8.79,0,0,1,1.65-1.53.45.45,0,0,1,.23-.09c.22,0,.4.21.52.64A40.13,40.13,0,0,1,34.27,35c-1.38,1.47-2.66,2.2-3.82,2.2a4.74,4.74,0,0,1-3-1,9.33,9.33,0,0,1-2.08-2.29,6.21,6.21,0,0,0-1-1.3h-.09c-.44,0-1.13.49-2.08,1.48a13.34,13.34,0,0,1-3.56,2.72A9.62,9.62,0,0,1,14.13,38c-.32,0-.64,0-1,0a13.93,13.93,0,0,1-4.79-1.21Q2,33.28,2,25.36c0-.37,0-.74,0-1.12a6.81,6.81,0,0,1,1-3,8.82,8.82,0,0,1,2.57-2.72,8,8,0,0,1,3.52-1.4c.09,0,.14-.07.14-.13a.67.67,0,0,0-.09-.21,8,8,0,0,1-1-1,5.81,5.81,0,0,1-1.06-2,8.46,8.46,0,0,1-.33-2.61Zm3.91,7.36a5.25,5.25,0,0,0-2.23,1.64,7.66,7.66,0,0,0-1.92,4A5.5,5.5,0,0,0,6.46,25a8.82,8.82,0,0,0,1.39,4.43A12.46,12.46,0,0,0,10.75,33a7.31,7.31,0,0,0,2.9,1.51,8.57,8.57,0,0,0,1.94.23,6.53,6.53,0,0,0,.87,0c.9-.06,1.7-.14,2.41-.25A4.79,4.79,0,0,0,21.63,33a19.74,19.74,0,0,0,1.89-2.06,4.8,4.8,0,0,0-.83-1.83A9.61,9.61,0,0,1,21.63,27,12.77,12.77,0,0,0,19,22.36a14.61,14.61,0,0,0-4.15-3.27,7.89,7.89,0,0,0-3.49-1A3.64,3.64,0,0,0,10.75,18.15Z"/></clipPath><linearGradient id="linear-gradient-2" x1="20" y1="40.78" x2="20" y2="3" gradientUnits="userSpaceOnUse"><stop offset="0" stop-color="#99540f"/><stop offset="1" stop-color="#b36211"/></linearGradient><linearGradient id="linear-gradient-3" x1="20" y1="36.5" x2="20" y2="-0.5" gradientUnits="userSpaceOnUse"><stop offset="0" stop-color="#80460d"/><stop offset="1" stop-color="#4d2a08"/></linearGradient></defs><g class="cls-2"><rect class="cls-3" y="3" width="40" height="38" rx="4"/><g class="cls-4"><rect class="cls-5" y="3" width="40" height="37.78"/></g><path class="cls-6" d="M19.27,36.5a.76.76,0,0,1-.68-.44.72.72,0,0,1,.11-.78,15.25,15.25,0,0,0,2.86-6.75,13.25,13.25,0,0,1-2.81,2.93A30.73,30.73,0,0,1,8.46,36.28a.78.78,0,0,1-.22,0,.73.73,0,0,1-.71-.54.75.75,0,0,1,.32-.84,12.63,12.63,0,0,0,6.09-10.62c0-3.78-.12-7.38-.35-10.12S13.24,7.81,13.24,4a4.51,4.51,0,0,1,4.5-4.5h14a.74.74,0,0,1,.73.57A.73.73,0,0,1,32.1.9,3.52,3.52,0,0,0,30.24,4c0,3.73.13,7.41.35,10.11s.35,6.39.35,10.2c0,5-4.27,9.53-11.41,12.14A1.09,1.09,0,0,1,19.27,36.5Z" transform="translate(0 1)"/><path class="cls-7" d="M31.75,0a.24.24,0,0,1,.12.46A4,4,0,0,0,29.74,4c0,3.67.12,7.35.35,10.15s.35,6.48.35,10.16c0,4.48-3.69,9-11.08,11.67l-.09,0a.25.25,0,0,1-.19-.4,16.56,16.56,0,0,0,3.18-8.37A.25.25,0,0,0,22,27a.24.24,0,0,0-.23.15,11.17,11.17,0,0,1-3.34,3.93A30.15,30.15,0,0,1,8.32,35.8H8.24a.25.25,0,0,1-.12-.46,13.15,13.15,0,0,0,6.32-11c0-3.68-.12-7.35-.35-10.16S13.74,7.67,13.74,4a4,4,0,0,1,4-4h14m0-1h-14a5,5,0,0,0-5,5c0,3.82.13,7.46.35,10.23s.35,6.31.35,10.08a12.15,12.15,0,0,1-5.86,10.2,1.25,1.25,0,0,0,.66,2.3,1.12,1.12,0,0,0,.36-.05,30.92,30.92,0,0,0,10.45-4.91,15.39,15.39,0,0,0,1.51-1.33A13,13,0,0,1,18.3,35a1.22,1.22,0,0,0-.16,1.3,1.25,1.25,0,0,0,1.13.73,1.13,1.13,0,0,0,.45-.09c7.33-2.67,11.72-7.39,11.72-12.6,0-3.82-.13-7.46-.36-10.24S30.74,7.72,30.74,4a3,3,0,0,1,1.6-2.66A1.23,1.23,0,0,0,33,0,1.23,1.23,0,0,0,31.75-1Z" transform="translate(0 1)"/><path class="cls-8" d="M50.19,8.35a.27.27,0,0,1,.1-.22,4.8,4.8,0,0,0,1,.08,3.57,3.57,0,0,0,1.7-.37,3.24,3.24,0,0,0,1.48-3.13c0-2.23-1.12-3.86-3.89-3.86a3.29,3.29,0,0,0-1,.12.51.51,0,0,0-.2.34c0,.56-.05,1.82-.05,5.75,0,2.77,0,4.62,0,5.86.07.87.22,1.06.9,1.23a11.51,11.51,0,0,0,1.46.22,1,1,0,0,1,0,.71c-.7,0-2.41-.08-3.35-.08-1.12,0-2.63.08-3.19.08a1,1,0,0,1,0-.68c.51-.08,1-.13,1.29-.2.59-.17.71-.44.76-1.41,0-.82.07-2.81.07-5.43,0-2.8,0-4.45,0-5.2S47,1,46.27.87A10.67,10.67,0,0,0,45.08.68a.93.93,0,0,1,0-.68c.39,0,1.73.07,2.88.07,1.46,0,2.51,0,3.94,0A5.53,5.53,0,0,1,55.18,1a4,4,0,0,1,1.51,3.27,4.57,4.57,0,0,1-2.58,4.23,5.53,5.53,0,0,1-2.56.61,3.21,3.21,0,0,1-1-.13A1.16,1.16,0,0,1,50.19,8.35ZM62.43,7.26a2.2,2.2,0,0,0-1.85-.92,1.61,1.61,0,0,0-1,.24,5.21,5.21,0,0,0-1,1.75c-.07.09-.73-.27-.7-.49a4.74,4.74,0,0,1,.56-1.43,7.86,7.86,0,0,1,3.19-1.34A2.78,2.78,0,0,1,64,6.36a4.66,4.66,0,0,1,.56,2.4c0,1.27-.1,3.14-.1,4.11a.85.85,0,0,0,.93,1,2.42,2.42,0,0,0,.85-.12,1.93,1.93,0,0,1-.1.72,2.8,2.8,0,0,1-2,.85,1.23,1.23,0,0,1-1.24-.63,2.49,2.49,0,0,1-.19-.6s-.08-.05-.1,0a6.8,6.8,0,0,1-2.9,1.26,2.08,2.08,0,0,1-1.34-.6,3.23,3.23,0,0,1-.82-2.14A3.45,3.45,0,0,1,58,11.17c.81-.44,3.68-1.12,4.61-1.58a.48.48,0,0,0,.14-.24,3,3,0,0,0,0-.66A2.49,2.49,0,0,0,62.43,7.26Zm.22,3.06a19.37,19.37,0,0,0-2.9,1.11,1.46,1.46,0,0,0-.24.78,1.59,1.59,0,0,0,1.7,1.65,2.44,2.44,0,0,0,1.25-.39.63.63,0,0,0,.26-.55c.05-.51.05-2.09.05-2.51C62.77,10.39,62.7,10.29,62.65,10.32ZM73.82,5.54a4.07,4.07,0,0,0,1.39.24,1.62,1.62,0,0,0,1.46-.54c.07,0,.29.13.32.17a2.86,2.86,0,0,1-.61,1.36,1,1,0,0,1-.85.29,5.82,5.82,0,0,1-.59,0,.11.11,0,0,0,0,.12,4.16,4.16,0,0,1,.2,1.19,3.62,3.62,0,0,1-1.44,3.16,5.19,5.19,0,0,1-2.58,1,3.59,3.59,0,0,0-.46.05c-.22,0-.63.24-.63.63s.46.68,1,.73a23.51,23.51,0,0,1,4,.49,2.39,2.39,0,0,1,1.7,2.37,4.76,4.76,0,0,1-3,4.06,5.9,5.9,0,0,1-2.77.68A4.71,4.71,0,0,1,68,20.64a3,3,0,0,1-1.16-2.26,2.6,2.6,0,0,1,.17-.92,16.26,16.26,0,0,1,2.36-1.9s0-.07,0-.07A2.13,2.13,0,0,1,67.81,14a1.76,1.76,0,0,1,.1-.41c.36-.22,1.26-.75,1.6-1a.08.08,0,0,0,0-.14A3.34,3.34,0,0,1,67.25,9a3.47,3.47,0,0,1,1.36-2.82,6,6,0,0,1,3-1.07A5.56,5.56,0,0,1,73.82,5.54ZM75,17.87a1.75,1.75,0,0,0-1.24-1.73,9.38,9.38,0,0,0-3-.41,1.79,1.79,0,0,0-.87.24c-.93.61-1.34,1.22-1.34,1.9a2.13,2.13,0,0,0,.8,1.65,3.86,3.86,0,0,0,2.51.78C74.16,20.3,75,19.06,75,17.87ZM69.1,8.4c0,1.55.73,3.18,2.41,3.18a1.55,1.55,0,0,0,1.12-.44A3,3,0,0,0,73.29,9c0-1.46-.61-3.06-2.41-3.06C69.78,6,69.1,6.94,69.1,8.4ZM86,12.82a1.66,1.66,0,0,1-.13.65A5.59,5.59,0,0,1,82,15.29a4,4,0,0,1-3-1.16,5.48,5.48,0,0,1-1.38-3.86,5,5,0,0,1,2.14-4.39,5.38,5.38,0,0,1,2.63-.81c2.36,0,3.21,2.09,3.41,3.45,0,.1.12.2.36.27a1.07,1.07,0,0,1-.19.56,41.82,41.82,0,0,1-6.38.53c-.1,0-.15.15-.15.27a4.31,4.31,0,0,0,1,2.47,3.4,3.4,0,0,0,2.65,1.07,4.23,4.23,0,0,0,2.78-1A.76.76,0,0,1,86,12.82Zm-6.48-4c0,.05,0,.17.12.17a35.6,35.6,0,0,0,4.14-.15.32.32,0,0,0,.12-.22C83.8,7.38,83,6,81.68,6S79.66,7.06,79.54,8.79Zm14.19-.9a.88.88,0,0,1-.66.05c-.14-1.05-.34-1.56-.82-1.85a2.29,2.29,0,0,0-1.2-.29,1.41,1.41,0,0,0-1.51,1.41c0,.83.42,1.31,2.27,2.19,2,.92,2.53,1.74,2.53,2.91,0,1.75-1.63,3-3.82,3A7.37,7.37,0,0,1,88,14.83a16.43,16.43,0,0,1-.41-2.67,1.32,1.32,0,0,1,.7-.22,3.31,3.31,0,0,0,1.44,2.26,2.73,2.73,0,0,0,1.22.29c1,0,1.63-.53,1.63-1.36s-.46-1.33-2-2.06c-2-1-2.68-1.84-2.68-3.13,0-1.51,1.19-2.87,3.58-2.87a10,10,0,0,1,1.58.15l1,.15A16.25,16.25,0,0,0,93.73,7.89Z" transform="translate(0 1)"/><path class="cls-8" d="M75.26,33.06a.26.26,0,0,1,.1-.22,4.8,4.8,0,0,0,.94.07A3.61,3.61,0,0,0,78,32.55a3.24,3.24,0,0,0,1.48-3.13c0-2.24-1.12-3.86-3.89-3.86a3.29,3.29,0,0,0-1,.12.51.51,0,0,0-.2.34c0,.55,0,1.82,0,5.75,0,2.77,0,4.61,0,5.85.07.87.22,1.07.9,1.24a13.28,13.28,0,0,0,1.46.22.94.94,0,0,1,0,.7c-.7,0-2.41-.07-3.36-.07-1.12,0-2.62.07-3.18.07a1,1,0,0,1,0-.68c.51-.07,1-.12,1.29-.19.59-.17.71-.44.76-1.41s.07-2.82.07-5.44c0-2.79,0-4.44,0-5.19s-.19-1.14-.87-1.29a8.76,8.76,0,0,0-1.19-.19.92.92,0,0,1,0-.68c.39,0,1.73.07,2.88.07,1.46,0,2.5-.05,3.94-.05a5.59,5.59,0,0,1,3.24.92,4,4,0,0,1,1.51,3.28,4.55,4.55,0,0,1-2.58,4.22,5.55,5.55,0,0,1-2.56.61,3.33,3.33,0,0,1-1.05-.12A1.27,1.27,0,0,1,75.26,33.06ZM87.5,32A2.22,2.22,0,0,0,85.65,31a1.66,1.66,0,0,0-1,.24,5.43,5.43,0,0,0-1,1.75c-.07.1-.73-.26-.7-.48a4.92,4.92,0,0,1,.56-1.44,7.9,7.9,0,0,1,3.19-1.33,2.76,2.76,0,0,1,2.41,1.29,4.66,4.66,0,0,1,.56,2.4c0,1.26-.1,3.13-.1,4.1,0,.51.19,1,.92,1a2.27,2.27,0,0,0,.86-.12,2,2,0,0,1-.1.73,2.84,2.84,0,0,1-2,.85A1.25,1.25,0,0,1,88,39.37a2.18,2.18,0,0,1-.19-.61s-.08,0-.1,0A6.93,6.93,0,0,1,84.82,40a2,2,0,0,1-1.34-.61,3.19,3.19,0,0,1-.82-2.13,3.51,3.51,0,0,1,.43-1.39c.81-.43,3.68-1.11,4.6-1.58a.4.4,0,0,0,.15-.24,3,3,0,0,0,0-.65A2.53,2.53,0,0,0,87.5,32ZM87.72,35a19.26,19.26,0,0,0-2.9,1.12,1.38,1.38,0,0,0-.24.78,1.6,1.6,0,0,0,1.7,1.65,2.38,2.38,0,0,0,1.24-.39.65.65,0,0,0,.27-.56c0-.51,0-2.09,0-2.5C87.84,35.1,87.77,35,87.72,35ZM92,39.08A4.45,4.45,0,0,0,93,38.83a.69.69,0,0,0,.39-.68c.08-.77.1-2.45.1-6.4,0-1.73,0-5.3-.07-6,0-.27,0-.68-.37-.76a10.79,10.79,0,0,0-1.26-.22.64.64,0,0,1,0-.6,12.77,12.77,0,0,0,3.58-.9.36.36,0,0,1,.17.22,6.18,6.18,0,0,0-.22,2.11c0,1.24,0,4,0,6.07,0,3.81,0,5.46.07,6.12s.1.94.54,1.09a2.94,2.94,0,0,0,1,.22,1.15,1.15,0,0,1-.1.7c-.44,0-1.22-.07-2.51-.07-1,0-2.09.07-2.41.07A1.19,1.19,0,0,1,92,39.08Zm12.44-6.48a.88.88,0,0,1-.66,0c-.14-1-.34-1.55-.82-1.84a2.2,2.2,0,0,0-1.2-.29,1.41,1.41,0,0,0-1.51,1.41c0,.82.42,1.31,2.27,2.18,2,.92,2.53,1.75,2.53,2.91,0,1.75-1.63,3-3.82,3a7.61,7.61,0,0,1-2.56-.46,16.43,16.43,0,0,1-.41-2.67,1.16,1.16,0,0,1,.7-.22,3.36,3.36,0,0,0,1.44,2.26,2.87,2.87,0,0,0,1.22.29c1,0,1.63-.54,1.63-1.36s-.46-1.34-2-2.06c-2-1-2.68-1.85-2.68-3.14,0-1.5,1.19-2.86,3.58-2.86a10.08,10.08,0,0,1,1.58.14c.39.08.78.13,1,.15A16.55,16.55,0,0,0,104.39,32.6Z" transform="translate(0 1)"/><path class="cls-9" d="M47.69,24a3,3,0,0,1,.75-1.92,5.22,5.22,0,0,1,1.87-1.38A8,8,0,0,1,52.65,20a3.23,3.23,0,0,1,.46,0,6.09,6.09,0,0,1,1.47.2,3.39,3.39,0,0,1,1.64.82,1.25,1.25,0,0,1,.36.86,1.61,1.61,0,0,1-.13.58,4.2,4.2,0,0,1-.57.79c-.29.37-.52.56-.68.56a.1.1,0,0,1-.08,0,6.37,6.37,0,0,0-.43-.77,7.93,7.93,0,0,0-.83-1.1,2.36,2.36,0,0,0-1.13-.73,3.3,3.3,0,0,0-.67-.08,2,2,0,0,0-1.7,1,3,3,0,0,0-.51,1.65A3.22,3.22,0,0,0,50,24.8a2.91,2.91,0,0,0,1.21,1.59,9.65,9.65,0,0,0,2.26.83,11.57,11.57,0,0,1,2.29.85,7.85,7.85,0,0,1,1,1.57A26.11,26.11,0,0,0,58.33,32c.36.52.63.78.82.78a.13.13,0,0,0,.1,0,2.12,2.12,0,0,0,.82-1c.24-.5.72-1.6,1.44-3.31.41-1,1-1.56,1.67-1.68a1.09,1.09,0,0,1,.26,0,1.92,1.92,0,0,1,1.56,1,.25.25,0,0,1,.06.19,4.32,4.32,0,0,1-.19.94c-.2.66-.4,1-.59,1h-.07a1.15,1.15,0,0,1-.61-.36,4.16,4.16,0,0,0-.73-.5.5.5,0,0,0-.18,0,.92.92,0,0,0-.46.13s-.14.15-.3.44-.52,1.09-1,2.26c-.05.09-.15.28-.31.55s-.33.62-.51,1a3.3,3.3,0,0,0-.31,1,1.84,1.84,0,0,0,0,.39,2.6,2.6,0,0,0,.06.56A3.16,3.16,0,0,0,60.88,37a1.84,1.84,0,0,0,1.19.5,1.57,1.57,0,0,0,.37,0,2.26,2.26,0,0,0,.92-.76,5.58,5.58,0,0,1,.92-.9.31.31,0,0,1,.13,0c.12,0,.22.12.29.38A24.92,24.92,0,0,1,63,38.24a3.12,3.12,0,0,1-2.13,1.29,2.52,2.52,0,0,1-1.7-.58A5.36,5.36,0,0,1,58,37.61a4.32,4.32,0,0,0-.54-.77h-.05c-.25,0-.63.29-1.16.87a7.6,7.6,0,0,1-2,1.6,5.17,5.17,0,0,1-2.51.69,4.89,4.89,0,0,1-.54,0,7.33,7.33,0,0,1-2.67-.71C46.18,37.9,45,35.66,45,32.56q0-.31,0-.66a4.1,4.1,0,0,1,.56-1.76A5.15,5.15,0,0,1,47,28.54a4.31,4.31,0,0,1,2-.82c.05,0,.08,0,.08-.08a.42.42,0,0,0-.05-.12,4.38,4.38,0,0,1-.54-.61,3.46,3.46,0,0,1-.59-1.15,5.32,5.32,0,0,1-.19-1.54Zm2.19,4.34a2.87,2.87,0,0,0-1.25,1,4.61,4.61,0,0,0-1.07,2.37,3.36,3.36,0,0,0-.08.71A5.39,5.39,0,0,0,48.26,35a7,7,0,0,0,1.62,2.07,3.88,3.88,0,0,0,1.61.89,4.45,4.45,0,0,0,1.08.14l.49,0c.5,0,.94-.09,1.34-.15A2.63,2.63,0,0,0,55.93,37,10.84,10.84,0,0,0,57,35.82a3,3,0,0,0-.46-1.08,5.73,5.73,0,0,1-.6-1.21,7.45,7.45,0,0,0-1.48-2.73,8.1,8.1,0,0,0-2.31-1.92,4.16,4.16,0,0,0-2-.58A1.63,1.63,0,0,0,49.88,28.33Z" transform="translate(0 1)"/></g></svg>